<svg fill="none" height="495" viewBox="0 0 945 495" width="945" xmlns="http://www.w3.org/2000/svg" xmlns:xlink="http://www.w3.org/1999/xlink"><filter id="filter0_f_1412_14861" color-interpolation-filters="sRGB" filterUnits="userSpaceOnUse" height="74.1836" width="352.9" x="98.3999" y="379.1"><feFlood flood-opacity="0" result="BackgroundImageFix"/><feBlend in="SourceGraphic" in2="BackgroundImageFix" mode="normal" result="shape"/><feGaussianBlur result="effect1_foregroundBlur_1412_14861" stdDeviation="4"/></filter><filter id="filter1_f_1412_14861" color-interpolation-filters="sRGB" filterUnits="userSpaceOnUse" height="234" width="169" x="95" y="205"><feFlood flood-opacity="0" result="BackgroundImageFix"/><feBlend in="SourceGraphic" in2="BackgroundImageFix" mode="normal" result="shape"/><feGaussianBlur result="effect1_foregroundBlur_1412_14861" stdDeviation="3.5"/></filter><linearGradient id="lg1"><stop offset="0" stop-color="#4d4c6a" stop-opacity=".3"/><stop offset=".0879645" stop-color="#575673" stop-opacity=".2663"/><stop offset=".2399" stop-color="#73728a" stop-opacity=".2082"/><stop offset=".4376" stop-color="#a0a0b0" stop-opacity=".1325"/><stop offset=".6708" stop-color="#dedee4" stop-opacity=".043261"/><stop offset=".7838" stop-color="#ffffff" stop-opacity="0"/></linearGradient><radialGradient id="paint0_radial_1412_14861" cx="0" cy="0" gradientTransform="matrix(127.237 0 0 5.58039 683.597 467.754)" gradientUnits="userSpaceOnUse" r="1" xlink:href="#lg1"/><radialGradient id="paint1_radial_1412_14861" cx="0" cy="0" gradientTransform="matrix(127.237 0 0 5.58039 755.23 467.754)" gradientUnits="userSpaceOnUse" r="1" xlink:href="#lg1"/><radialGradient id="paint2_radial_1412_14861" cx="0" cy="0" gradientTransform="matrix(127.237 0 0 5.58039 834.347 467.754)" gradientUnits="userSpaceOnUse" r="1" xlink:href="#lg1"/><radialGradient id="paint3_radial_1412_14861" cx="0" cy="0" gradientTransform="matrix(127.237 0 0 5.58039 770.198 467.754)" gradientUnits="userSpaceOnUse" r="1" xlink:href="#lg1"/><linearGradient id="paint4_linear_1412_14861" gradientUnits="userSpaceOnUse" x1="198.65" x2="447.458" y1="535.488" y2="275.684"><stop offset="0" stop-color="#bdd4ff"/><stop offset="1" stop-color="#edf3ff"/></linearGradient><linearGradient id="paint5_linear_1412_14861" gradientUnits="userSpaceOnUse" x1="378.13" x2="147.747" y1="646.076" y2="157.238"><stop offset=".000785176" stop-color="#245dc9" stop-opacity=".1"/><stop offset=".9987" stop-color="#bdd4ff"/></linearGradient><linearGradient id="paint6_linear_1412_14861" gradientUnits="userSpaceOnUse" x1="335.453" x2="25.0299" y1="376.443" y2="174.669"><stop offset="0" stop-color="#77a7ff"/><stop offset=".0371376" stop-color="#7caaff"/><stop offset=".2797" stop-color="#98bcff"/><stop offset=".5223" stop-color="#adcaff"/><stop offset=".7632" stop-color="#b9d1ff"/><stop offset="1" stop-color="#bdd4ff"/></linearGradient><linearGradient id="paint7_linear_1412_14861" gradientUnits="userSpaceOnUse" x1="412.821" x2="835.464" y1="380.48" y2="-60.844"><stop offset="0" stop-color="#bdd4ff"/><stop offset=".1094" stop-color="#c4d8ff"/><stop offset=".6786" stop-color="#e2ecff"/><stop offset="1" stop-color="#edf3ff"/></linearGradient><linearGradient id="lg2"><stop offset="0" stop-color="#f86e80"/><stop offset=".2768" stop-color="#f87283"/><stop offset=".5262" stop-color="#fa7d8d"/><stop offset=".7643" stop-color="#fc8f9d"/><stop offset=".9955" stop-color="#ffa8b3"/><stop offset="1" stop-color="#ffa9b4"/></linearGradient><linearGradient id="paint8_linear_1412_14861" gradientUnits="userSpaceOnUse" x1="263.04" x2="174.63" xlink:href="#lg2" y1="336.611" y2="278.531"/><linearGradient id="lg3"><stop offset="0" stop-color="#f6cfbe"/><stop offset="1" stop-color="#ffe8e1"/></linearGradient><linearGradient id="paint9_linear_1412_14861" gradientUnits="userSpaceOnUse" x1="334.772" x2="343.376" xlink:href="#lg3" y1="318.804" y2="300.52"/><linearGradient id="lg4"><stop offset="0" stop-color="#0e1b33"/><stop offset="1" stop-color="#233b67"/></linearGradient><linearGradient id="paint10_linear_1412_14861" gradientUnits="userSpaceOnUse" x1="277.454" x2="269.326" xlink:href="#lg4" y1="177.14" y2="151.595"/><linearGradient id="paint11_linear_1412_14861" gradientUnits="userSpaceOnUse" x1="257.273" x2="274.98" xlink:href="#lg3" y1="203.493" y2="217.137"/><linearGradient id="paint12_linear_1412_14861" gradientUnits="userSpaceOnUse" x1="268.394" x2="289.004" xlink:href="#lg3" y1="142.72" y2="183.65"/><linearGradient id="paint13_linear_1412_14861" gradientUnits="userSpaceOnUse" x1="272.866" x2="264.739" xlink:href="#lg4" y1="178.599" y2="153.054"/><linearGradient id="paint14_linear_1412_14861" gradientUnits="userSpaceOnUse" x1="346.111" x2="362.114" xlink:href="#lg3" y1="391.841" y2="388.269"/><linearGradient id="paint15_linear_1412_14861" gradientUnits="userSpaceOnUse" x1="377.609" x2="379.2" xlink:href="#lg4" y1="419.125" y2="393.859"/><linearGradient id="paint16_linear_1412_14861" gradientUnits="userSpaceOnUse" x1="291.888" x2="304.494" xlink:href="#lg3" y1="386.564" y2="391.392"/><linearGradient id="paint17_linear_1412_14861" gradientUnits="userSpaceOnUse" x1="301.295" x2="313.879" xlink:href="#lg4" y1="419.531" y2="402.916"/><linearGradient id="lg5"><stop offset="0" stop-color="#233b67"/><stop offset="1" stop-color="#305eb2"/></linearGradient><linearGradient id="paint18_linear_1412_14861" gradientUnits="userSpaceOnUse" x1="226.433" x2="200.132" xlink:href="#lg5" y1="309.527" y2="299.896"/><linearGradient id="paint19_linear_1412_14861" gradientUnits="userSpaceOnUse" x1="269.198" x2="278.088" xlink:href="#lg5" y1="406.135" y2="272.039"/><linearGradient id="paint20_linear_1412_14861" gradientUnits="userSpaceOnUse" x1="256.45" x2="297.406" xlink:href="#lg2" y1="263.809" y2="276.18"/><linearGradient id="paint21_linear_1412_14861" gradientUnits="userSpaceOnUse" x1="274.581" x2="283.185" xlink:href="#lg3" y1="290.479" y2="272.194"/><linearGradient id="paint22_linear_1412_14861" gradientUnits="userSpaceOnUse" x1="185.459" x2="231.192" xlink:href="#lg2" y1="281.632" y2="239.833"/><linearGradient id="lg6"><stop offset=".00127618" stop-color="#4687ff"/><stop offset=".9992" stop-color="#77a7ff"/></linearGradient><linearGradient id="paint23_linear_1412_14861" gradientUnits="userSpaceOnUse" x1="107.239" x2="107.285" xlink:href="#lg6" y1="255.889" y2="255.704"/><linearGradient id="paint24_linear_1412_14861" gradientUnits="userSpaceOnUse" x1="107.232" x2="107.313" xlink:href="#lg6" y1="319.995" y2="319.674"/><linearGradient id="paint25_linear_1412_14861" gradientUnits="userSpaceOnUse" x1="243.041" x2="154.631" xlink:href="#lg2" y1="367.053" y2="308.973"/><radialGradient id="paint26_radial_1412_14861" cx="0" cy="0" gradientTransform="matrix(136.381 0 0 12.2134 212.928 417.382)" gradientUnits="userSpaceOnUse" r="1" xlink:href="#lg1"/><radialGradient id="paint27_radial_1412_14861" cx="0" cy="0" gradientTransform="matrix(136.381 0 0 12.2134 393.293 420.82)" gradientUnits="userSpaceOnUse" r="1" xlink:href="#lg1"/><radialGradient id="paint28_radial_1412_14861" cx="0" cy="0" gradientTransform="matrix(136.381 0 0 12.2134 340.132 420.82)" gradientUnits="userSpaceOnUse" r="1" xlink:href="#lg1"/><radialGradient id="paint29_radial_1412_14861" cx="999.074" cy="296.46" gradientUnits="userSpaceOnUse" r="259.121"><stop offset="0" stop-color="#ffa9b4"/><stop offset=".00451326" stop-color="#ffa8b3" stop-opacity=".9955"/><stop offset=".2357" stop-color="#fc8f9d" stop-opacity=".7643"/><stop offset=".4738" stop-color="#fa7d8d" stop-opacity=".5262"/><stop offset=".7232" stop-color="#f87283" stop-opacity=".2768"/><stop offset="1" stop-color="#f86e80" stop-opacity="0"/></radialGradient><radialGradient id="paint31_radial_1412_14861" cx="677.388" cy="496.735" gradientUnits="userSpaceOnUse" r="173.156"><stop offset="0" stop-color="#f64f64"/><stop offset=".2939" stop-color="#f76073" stop-opacity=".7061"/><stop offset=".6284" stop-color="#f86a7d" stop-opacity=".3716"/><stop offset="1" stop-color="#f86e80" stop-opacity="0"/></radialGradient><linearGradient id="lg7"><stop offset="0" stop-color="#f86e80" stop-opacity="0"/><stop offset="1" stop-color="#f64f64"/></linearGradient><linearGradient id="paint32_linear_1412_14861" gradientUnits="userSpaceOnUse" x1="733.428" x2="487.494" xlink:href="#lg7" y1="115.169" y2="243.843"/><linearGradient id="paint33_linear_1412_14861" gradientUnits="userSpaceOnUse" x1="825.684" x2="557.867" y1="220.764" y2="293.663"><stop offset="0" stop-color="#f86e80" stop-opacity="0"/><stop offset=".2172" stop-color="#f76477" stop-opacity=".2175"/><stop offset=".6497" stop-color="#f65469" stop-opacity=".6504"/><stop offset=".9989" stop-color="#f64f64"/></linearGradient><linearGradient id="paint34_linear_1412_14861" gradientUnits="userSpaceOnUse" x1="690.975" x2="519.755" xlink:href="#lg7" y1="448.129" y2="291.436"/><linearGradient id="paint35_linear_1412_14861" gradientUnits="userSpaceOnUse" x1="738.801" x2="481.452" y1="368.628" y2="342.685"><stop offset="0" stop-color="#f86e80" stop-opacity="0"/><stop offset=".1328" stop-color="#f8687b" stop-opacity=".1328"/><stop offset=".6401" stop-color="#f6566a" stop-opacity=".6401"/><stop offset="1" stop-color="#f64f64"/></linearGradient><linearGradient id="paint36_linear_1412_14861" gradientUnits="userSpaceOnUse" x1="903.259" x2="489.4" y1="325.323" y2="318.157"><stop offset=".2326" stop-color="#f86e80" stop-opacity="0"/><stop offset=".6209" stop-color="#f76174" stop-opacity=".506"/><stop offset="1" stop-color="#f64f64"/></linearGradient><linearGradient id="lg8"><stop offset=".000785176" stop-color="#77a7ff"/><stop offset=".9987" stop-color="#bdd4ff"/></linearGradient><linearGradient id="paint37_linear_1412_14861" gradientUnits="userSpaceOnUse" x1="899.91" x2="724.885" xlink:href="#lg8" y1="552.715" y2="302.63"/><linearGradient id="paint38_linear_1412_14861" gradientUnits="userSpaceOnUse" x1="796.969" x2="776.51" xlink:href="#lg8" y1="450.483" y2="322.609"/><linearGradient id="paint39_linear_1412_14861" gradientUnits="userSpaceOnUse" x1="772.685" x2="772.685" xlink:href="#lg8" y1="432.876" y2="405.896"/><linearGradient id="paint40_linear_1412_14861" gradientUnits="userSpaceOnUse" x1="699.548" x2="658.277" xlink:href="#lg8" y1="624.091" y2="417.04"/><radialGradient id="paint41_radial_1412_14861" cx="0" cy="0" gradientTransform="matrix(136.381 0 0 12.2134 764.094 506.267)" gradientUnits="userSpaceOnUse" r="1" xlink:href="#lg1"/><radialGradient id="paint42_radial_1412_14861" cx="0" cy="0" gradientTransform="matrix(136.381 0 0 12.2134 696.737 506.267)" gradientUnits="userSpaceOnUse" r="1" xlink:href="#lg1"/><radialGradient id="paint43_radial_1412_14861" cx="0" cy="0" gradientTransform="matrix(136.381 0 0 12.2134 833.588 506.267)" gradientUnits="userSpaceOnUse" r="1" xlink:href="#lg1"/><clipPath id="clip0_1412_14861"><path d="M0 0H945V495H0Z"/></clipPath><g clip-path="url(#clip0_1412_14861)"><path d="M683.6 472.8C753.85 472.8 810.8 470.292 810.8 467.2 810.8 464.107 753.85 461.6 683.6 461.6 613.349 461.6 556.4 464.107 556.4 467.2 556.4 470.292 613.349 472.8 683.6 472.8Z" fill="url(#paint0_radial_1412_14861)"/><path d="M755.3 472.8C825.551 472.8 882.5 470.292 882.5 467.2 882.5 464.107 825.551 461.6 755.3 461.6 685.049 461.6 628.1 464.107 628.1 467.2 628.1 470.292 685.049 472.8 755.3 472.8Z" fill="url(#paint1_radial_1412_14861)"/><path d="M834.4 472.8C904.651 472.8 961.6 470.292 961.6 467.2 961.6 464.107 904.651 461.6 834.4 461.6 764.15 461.6 707.2 464.107 707.2 467.2 707.2 470.292 764.15 472.8 834.4 472.8Z" fill="url(#paint2_radial_1412_14861)"/><path d="M770.2 472.8C840.451 472.8 897.4 470.292 897.4 467.2 897.4 464.107 840.451 461.6 770.2 461.6 699.949 461.6 643 464.107 643 467.2 643 470.292 699.949 472.8 770.2 472.8Z" fill="url(#paint3_radial_1412_14861)"/><path d="M947.9 0H0V496.1H947.9V0Z" fill="url(#paint4_linear_1412_14861)"/><path d="M947.9 359.9V496.1H0V483.1L94.5 444.1 117.3 434.7H117.5L126.2 431.1 136.2 427V426.9L174.4 411.2 178.4 409.5 187.3 405.9 215.4 394.3 224.8 390.4 236 385.8 260.2 375.9 269.7 371.9 289.1 363.9 299 359.9H947.9Z" fill="#ffffff"/><g filter="url(#filter0_f_1412_14861)" opacity=".7"><path d="M106.4 432.1C106.4 432.1 178.6 452.7 266.8 442.4 355 432.1 363.1 428.6 386 432.1 408.9 435.5 443.3 421.8 443.3 421.8 443.3 421.8 392.9 413.8 336.7 411.5 280.5 409.2 281.7 409.2 281.7 409.2 281.7 409.2 286.3 392 255.3 392 224.3 392 200.7 387.1 200.7 387.1L106.4 432.1Z" fill="url(#paint5_linear_1412_14861)"/></g><path d="M263.8 0V365L262 365.9 221.9 384.6 219.7 385.7 212.5 389 186.9 401 176.2 406 170.6 408.6 123.6 430.6 117.2 433.5 115.5 434.3 94.5 444.1 0 488.3V0H263.8Z" fill="url(#paint6_linear_1412_14861)"/><path d="M947.9 0H262.2V359.5H947.9V0Z" fill="url(#paint7_linear_1412_14861)"/><g filter="url(#filter1_f_1412_14861)" opacity=".4"><path d="M125.448 431.32C125.448 431.32 119.074 435.134 111.334 424.7 103.708 414.267 94.9438 395.532 111.106 365.69 127.269 335.96 159.817 291.275 160.5 268.726 174.385 246.994 188.847 222.034 209.334 214.629 229.822 207.225 230.96 216.368 252.587 230.728 274.213 245.088 209.334 385.996 209.334 385.996L125.448 431.32Z" fill="#6c90d2"/></g><path d="M202.8 237.199C202.8 237.199 190.9 327.599 224.3 350.599 257.6 373.499 266.9 231.299 202.8 237.199Z" fill="#ed7d2b"/><path d="M234.4 221.3C234.4 221.3 234.5 210.8 243.9 214.3 253.3 217.9 270.7 223 277.2 220.2 283.7 217.4 268 251.4 251.7 241.1 235.5 230.8 234.4 221.3 234.4 221.3Z" fill="#ed7d2b"/><path d="M178.1 404.9C178.1 404.9 172.5 408.3 165.7 399 159 389.7 151.3 373 165.5 346.4 179.7 319.9 193.9 278.4 194.5 258.3 195.1 238.3 204.4 216 222.4 209.4 240.4 202.8 270.8 213.3 289.8 226.1 308.8 238.9 251.8 364.5 251.8 364.5L178.1 404.9Z" fill="url(#paint8_linear_1412_14861)"/><path d="M330.6 297.7C330.6 297.7 345.9 301.4 345.9 318.3 345.9 335.1 339.3 330.6 339.3 330.6L330.6 297.7Z" fill="url(#paint9_linear_1412_14861)"/><path d="M298.8 128.1C298.8 128.1 329.1 143.4 314.2 177.5 301.8 205.8 296 208.1 293.2 224.8 293.2 224.8 277.9 226.3 244.1 203.8 210.3 181.3 262.2 132.9 262.2 132.9 282 121.7 298.8 128.1 298.8 128.1Z" fill="url(#paint10_linear_1412_14861)"/><path d="M279 202.5C279 202.5 271 216.8 272.3 226 272.3 226 262 231.9 251.6 222.5 247 218.4 244.3 212.7 244.3 212.7 244.3 212.7 254.7 202.5 260.3 189.6 265.2 178.2 279 202.5 279 202.5Z" fill="url(#paint11_linear_1412_14861)"/><path d="M310.4 174.3C309.7 156.7 309.2 157.3 309.2 157.3 302.5 161 293.2 161.7 283.8 160.9 275.8 160.3 271.5 155.8 265.1 154.2 266.1 152.5 260.5 157.4 260.2 157.7 258.9 158.7 257.9 160 257.2 161.6L256 164.3C254.9 168.5 255.7 174.3 256.9 175.8 257.6 176.6 259.1 177.2 259.1 177.2L257.2 185.3C256.9 187.5 258.9 190.9 259.6 192.1 263 197.9 264.8 200.5 267.8 204.2 270.7 207.7 277.6 211.7 282.2 211.5 286.1 211.3 289.3 209.7 293.2 205.2 295.9 202.1 298.9 198.3 301.9 193L310.4 177.3C310.5 176.2 310.5 175.2 310.4 174.3Z" fill="url(#paint12_linear_1412_14861)"/><path d="M266.6 162.2C266.6 162.2 262.6 157.7 259.7 161.6 256.7 165.5 253.9 176.2 259.3 177.1 259.3 177.1 247.9 188 248 205.5 248 205.5 238.1 202.4 227.2 189.2 225.3 186.9 252.4 109.8 294.5 129 294.5 129 320.6 141.6 309.4 157.2 301.5 168.1 266.6 162.2 266.6 162.2Z" fill="url(#paint13_linear_1412_14861)"/><path d="M342.9 385.4C342.9 385.4 350.5 396.3 352.7 400 354.9 403.6 370.9 394.3 370.5 394.3 370.1 394.3 360.2 378.5 359.5 377.9 358.9 377.2 342.9 385.4 342.9 385.4Z" fill="url(#paint14_linear_1412_14861)"/><path d="M380.9 417.3C380.2 417.7 379.4 418 378.6 418.1L356 417.5C355.2 417.7 354.5 417.3 354.3 416.5L351.8 400.7C351.6 400 352 399.3 352.7 399.1H358.6C359.2 399 359.8 398.9 360.4 398.8 364 398 367.3 396.1 369.9 393.5 370.3 393.1 370.9 393.2 371.2 393.6 372.5 395.2 376 398.6 381.2 398.4 383.4 398.3 391.5 398.3 393.7 397.7 400.2 396.1 402.7 396 405.2 398.7 406.5 400.1 406.1 402.4 404.4 403.3L380.9 417.3Z" fill="url(#paint15_linear_1412_14861)"/><path d="M292.6 380.7C292.6 380.7 292.8 391.6 292.7 395.1 292.6 398.6 307.8 399.4 307.5 399.3 307.2 399.2 307.6 383.8 307.4 383 307.3 382.3 292.6 380.7 292.6 380.7Z" fill="url(#paint16_linear_1412_14861)"/><path d="M304.2 419.8C303.5 419.8 302.9 419.6 302.3 419.3L287 408.7C286.4 408.5 286 407.8 286.3 407.2L291.8 395.2C292 394.6 292.6 394.3 293.1 394.5L297.1 397.2C297.5 397.4 298 397.6 298.5 397.8 301.4 398.9 304.5 399.1 307.5 398.5 307.9 398.4 308.3 398.7 308.4 399.1 308.6 400.8 309.4 404.7 313.1 406.9 314.7 407.8 320.2 411.5 322 412.1 327.2 414 329 415 329.4 418.1 329.6 419.7 328.3 421 326.8 420.9L304.2 419.8Z" fill="url(#paint17_linear_1412_14861)"/><path d="M207.4 410.4C207.4 410.4 215.4 417.9 241.9 408.7 274.9 397.2 266.5 371.2 274.4 345.9 281.6 322.8 286.3 306.2 286.3 306.2L290.4 390.5 310.2 390.8 325.8 252.7C327.1 241.5 318.2 231.8 306.9 232 299.9 232.1 293.6 236.1 290.5 242.4L207.4 410.4Z" fill="url(#paint18_linear_1412_14861)"/><path d="M175.6 396C173.3 403.2 177.1 411 184.3 413.5 198.2 418.3 222.2 421.5 245.3 401.1 268.2 380.9 260.2 349.1 265.8 331.7 276.5 298.5 282.4 287.4 282.4 287.4 297.3 324 317.3 358.4 341.8 389.4L345 393.4C352.5 393.4 359.7 390.5 365.1 385.3L365.2 385.2 308.8 239.9C304 227.5 287.8 224.4 278.7 234.2 249.7 265.8 196.8 329.8 175.6 396Z" fill="url(#paint19_linear_1412_14861)"/><path d="M254.7 264.501C247.6 271.901 240.7 277.001 238.5 276.401 238.3 276.401 238.2 276.301 238.1 276.201 236.5 274.701 241.3 267.001 248.9 259.001 256.5 251.001 263.9 245.801 265.5 247.301 265.6 247.401 265.7 247.501 265.7 247.701 266.4 249.801 261.7 257.001 254.7 264.501Z" fill="url(#paint20_linear_1412_14861)"/><path d="M230.5 241.1C230.5 241.1 207.1 242.7 225.1 258.5 262 290.8 268.3 294 276.4 297.7 289 303.4 339.9 314.3 339.9 314.3 339.9 314.3 343 306.5 338.9 302.8 332.4 296.8 290.6 280.1 285.3 276.5 282.6 274.7 266.3 257.4 252.4 240.4 238.7 223.3 244.5 231.9 230.5 241.1Z" fill="url(#paint21_linear_1412_14861)"/><path d="M248.8 258.9C241.2 266.9 236.4 274.6 238 276.1L213.7 253C208.7 248.2 205.7 242.3 204.9 236.6 204.1 230.9 205.5 225.3 209.3 221.3 216.9 213.3 231.1 214.6 241.1 224.1L265.4 247.2C263.9 245.7 256.4 251 248.8 258.9Z" fill="url(#paint22_linear_1412_14861)"/><path d="M107.5 256C107.3 255.9 107.1 255.8 106.9 255.8H107.5V256Z" fill="url(#paint23_linear_1412_14861)"/><path d="M107.5 320H107C107.2 320 107.4 319.9 107.6 319.8V320H107.5Z" fill="url(#paint24_linear_1412_14861)"/><path d="M236.3 273.3C236.3 273.3 197 330.3 188.9 367 183.5 391.6 188.9 416.3 188.9 416.3 188.9 416.3 162.5 414 158 386.5 153.4 359 175.2 337.2 175.2 337.2L236.3 273.3Z" fill="url(#paint25_linear_1412_14861)"/><path d="M212.9 429.3C288.232 429.3 349.3 423.838 349.3 417.1 349.3 410.363 288.232 404.9 212.9 404.9 137.568 404.9 76.5 410.363 76.5 417.1 76.5 423.838 137.568 429.3 212.9 429.3Z" fill="url(#paint26_radial_1412_14861)"/><path d="M393.3 432.8C468.632 432.8 529.7 427.338 529.7 420.6 529.7 413.863 468.632 408.4 393.3 408.4 317.968 408.4 256.9 413.863 256.9 420.6 256.9 427.338 317.968 432.8 393.3 432.8Z" fill="url(#paint27_radial_1412_14861)"/><path d="M340.1 432.8C415.432 432.8 476.5 427.338 476.5 420.6 476.5 413.863 415.432 408.4 340.1 408.4 264.769 408.4 203.7 413.863 203.7 420.6 203.7 427.338 264.769 432.8 340.1 432.8Z" fill="url(#paint28_radial_1412_14861)"/><path d="M889.1 341.9 777.3 91.3 440.7 79 462.8 446.3 858.3 441.4 889.1 341.9Z" fill="url(#paint29_radial_1412_14861)"/><path d="M889.1 341.9 832.5 99.9 440.7 79 462.8 446.3 858.3 441.4 889.1 341.9Z" fill="url(#paint29_radial_1412_14861)" opacity=".4"/><path d="M889.1 341.9 832.5 99.9 440.7 79 462.8 446.3H846.1L889.1 341.9Z" fill="url(#paint31_radial_1412_14861)" opacity=".4"/><path d="M778.4 215.7C778.4 215.7 668.7 163.7 578.4 149.8 488.2 135.9 518.2 138 499.3 143.2 499.1 143.2 499 143.3 498.8 143.3L498.7 143.9 487.7 146.7C487.7 146.7 479.7 148.3 476 148.8 472.3 149.3 469 150.5 466.3 155.3 463.6 160.1 451.6 168.2 451.6 168.2 451.6 168.2 446.5 176.4 444.1 176 441.7 175.6 440.3 174 440.3 174 440.3 174 439.5 175.1 437.6 175.7 437.1 175.9 436.6 176 435.9 176 432.8 176.2 430.9 173.2 430.9 173.2 430.8 173.2 430.1 173.2 429.4 172.9 428.6 172.6 427.7 172.1 427 171.1 425.5 169 429.9 160 429.9 160H429.8L416.4 165.6C415.3 166.1 414.4 166.6 413.8 167 411 168.8 403.2 171.5 402.1 168.4 401 165.3 412.1 160.7 412.1 160.7 412.1 160.7 427.6 151.2 429.5 150.1 431.4 149 437 146.3 437.6 146.2 438.2 146.1 456.6 135.8 459.7 134.4 462.9 133 482.1 126.6 482.1 126.6L488.9 125C492.1 124 495.7 122.9 499.5 121.8 527.2 113.7 659.4 114.1 726 137.6 792.6 161.1 803.5 185.2 803.5 185.2L778.4 215.7Z" fill="url(#paint32_linear_1412_14861)"/><path d="M882.3 319.3C882.3 319.3 786.3 244.9 701.2 212 616.1 179.1 645 187.5 625.4 188.6 625.2 188.6 625.1 188.6 624.9 188.6L624.7 189.1 613.4 189.5C613.4 189.5 605.3 189.3 601.5 189 597.7 188.7 594.3 189.2 590.7 193.3 587 197.4 573.6 202.7 573.6 202.7 573.6 202.7 566.9 209.7 564.6 208.7 562.3 207.8 561.3 206 561.3 206 561.3 206 560.3 206.9 558.3 207.1 557.8 207.1 557.2 207.1 556.6 207.1 553.5 206.7 552.3 203.3 552.3 203.3 552.2 203.3 551.6 203.1 550.9 202.7 550.2 202.3 549.4 201.6 548.9 200.4 547.9 198 554.1 190.2 554.1 190.2H554L539.7 192.8C538.5 193.1 537.5 193.3 536.9 193.6 533.8 194.8 525.5 195.7 525.2 192.5 524.8 189.2 536.7 187.1 536.7 187.1 536.7 187.1 553.9 181.1 556 180.4 558.1 179.7 564.1 178.3 564.8 178.3 565.5 178.3 585.6 172.3 589 171.6 592.4 170.9 612.6 168.8 612.6 168.8L619.6 168.7C623 168.4 626.6 168.1 630.7 167.9 659.4 165.9 788.5 194.7 848.5 232 908.5 269.3 914 295.1 914 295.1L882.3 319.3Z" fill="url(#paint33_linear_1412_14861)"/><path d="M734.3 373.5C734.3 373.5 572.1 381.901 541.4 374.201L535.3 372C535.3 372 527.4 369.601 523.8 368.701 520.1 367.801 517 366.301 514.8 361.201 512.6 356.101 501.4 346.8 501.4 346.8 501.4 346.8 497.2 338.001 494.7 338.201 492.2 338.401 490.7 339.8 490.7 339.8 490.7 339.8 490 338.6 488.2 337.8 487.7 337.6 487.2 337.4 486.6 337.3 483.5 336.7 481.3 339.601 481.3 339.601 481.2 339.601 480.5 339.501 479.7 339.701 478.9 339.901 477.9 340.301 477.1 341.201 475.4 343.201 478.9 352.601 478.9 352.601H478.8L465.9 345.601C464.8 345.001 464 344.401 463.5 344.001 460.9 341.901 453.3 338.4 451.9 341.4 450.5 344.4 461.2 350.201 461.2 350.201 461.2 350.201 475.7 361.301 477.5 362.701 479.3 364.001 484.6 367.3 485.2 367.5 485.8 367.7 503.2 379.801 506.2 381.601 509.2 383.401 527.9 391.8 527.9 391.8L545.4 397.701 546.6 398.601C546.6 398.601 635.1 425.6 687.9 424.4 740.7 423.2 740.7 387.5 740.7 387.5L734.3 373.5Z" fill="url(#paint34_linear_1412_14861)"/><path d="M620.2 316.8 620.6 316 604.3 312.2C604.3 312.2 587.2 309.9 584.2 309.9 581.2 309.8 563.4 310.8 562.8 310.7 562.3 310.6 557 310.6 555.1 310.7 553.2 310.8 537.8 312.4 537.8 312.4 537.8 312.4 527.5 311.8 527.2 314.6 526.9 317.4 533.9 318.2 536.7 317.9 537.2 317.8 538.1 317.8 539.2 317.8L551.6 318.5H551.7C551.7 318.5 545 323.7 545.4 325.9 545.6 327 546.1 327.7 546.6 328.2 547.1 328.7 547.6 328.9 547.7 329 547.7 329 548 332.1 550.5 333 551 333.2 551.5 333.3 551.9 333.4 553.6 333.7 554.6 333.1 554.6 333.1 554.6 333.1 555.1 334.8 556.8 336 558.5 337.2 565.5 332.8 565.5 332.8 565.5 332.8 577.7 331.1 581.6 328.4 585.5 325.7 588.4 326 591.4 327 594.5 328 601.2 329.8 601.2 329.8L607.3 331.1C608.3 331.9 609.1 332.4 609.1 332.4 609.1 332.4 641.4 339.6 681.5 364.1 721.6 388.7 732.8 411.3 732.8 411.3L772.2 377.1C772.1 377 650.7 313 620.2 316.8Z" fill="url(#paint35_linear_1412_14861)"/><path d="M685.2 255.4C619.2 236.7 578.3 225.3 554.2 218.7 547.2 216.2 530 210.1 526.3 209.1 521.7 207.9 493.2 203.3 492.4 203 491.6 202.6 483.3 200.8 480.3 200.4 477.3 200 452.5 197.1 452.5 197.1 452.5 197.1 436.6 192.6 435.1 196.9 433.6 201.1 444.4 204.9 448.9 205.3 449.8 205.4 451.1 205.6 452.8 206H452.7L471.9 211.4H472 472.1C472.1 211.4 459.8 217.3 459.6 220.9 459.5 222.6 460.1 224 460.7 224.9 461.3 225.8 462 226.4 462.1 226.5 462.1 226.5 461.5 231.4 465.1 233.8 465.8 234.3 466.5 234.6 467.2 234.9 469.8 235.9 471.6 235.3 471.6 235.3 471.6 235.3 471.8 238.1 474 240.6 476.3 243.1 488.8 238.6 488.8 238.6 488.8 238.6 508.6 240.1 515.6 237.2 522.6 234.3 527.1 235.8 531.6 238.4 531.9 238.5 532.1 238.7 532.4 238.9 548.3 250.1 587.2 275.7 664 318.2 771.6 377.8 831.6 446.3 831.6 446.3L907 437.9C907.1 438 813.1 291.7 685.2 255.4Z" fill="url(#paint36_linear_1412_14861)"/><path d="M686.7 446.3 851.1 444.5C854 444.5 856.6 442.6 857.5 439.9L888.8 339.7C890.1 335.5 886.9 331.2 882.4 331.2H719.9C717 331.2 714.4 333.1 713.5 335.8L682.2 436C680.9 440.3 682.2 446.3 686.7 446.3Z" fill="url(#paint37_linear_1412_14861)"/><path d="M692 446.3H851.8C854.7 446.3 857.2 444.4 858.1 441.7L888.9 341.5C890.2 337.3 887 333 882.6 333H722.8C719.9 333 717.4 334.9 716.5 337.6L685.7 437.8C684.4 442 687.6 446.3 692 446.3Z" fill="url(#paint38_linear_1412_14861)"/><path d="M690 452.9H853.7C854.6 452.9 855.3 452.2 855.3 451.3V447.9C855.3 447 854.6 446.3 853.7 446.3H690V452.9Z" fill="url(#paint39_linear_1412_14861)"/><path d="M640.9 452.9H690V446.3H640.9C640 446.3 639.2 447 639.2 448V451.3C639.2 452.2 640 452.9 640.9 452.9Z" fill="url(#paint40_linear_1412_14861)"/><path d="M802.561 393.832C804.947 386.303 802.784 378.902 797.729 377.3 792.675 375.698 786.643 380.503 784.258 388.032 781.872 395.561 784.035 402.963 789.089 404.564 794.144 406.166 800.175 401.361 802.561 393.832Z" fill="#ffffff"/><path d="M764.1 518.2C839.432 518.2 900.5 512.738 900.5 506 900.5 499.262 839.432 493.8 764.1 493.8 688.769 493.8 627.7 499.262 627.7 506 627.7 512.738 688.769 518.2 764.1 518.2Z" fill="url(#paint41_radial_1412_14861)"/><path d="M696.8 518.2C772.132 518.2 833.2 512.738 833.2 506 833.2 499.262 772.132 493.8 696.8 493.8 621.468 493.8 560.4 499.262 560.4 506 560.4 512.738 621.468 518.2 696.8 518.2Z" fill="url(#paint42_radial_1412_14861)"/><path d="M833.6 518.2C908.932 518.2 970 512.738 970 506 970 499.262 908.932 493.8 833.6 493.8 758.269 493.8 697.2 499.262 697.2 506 697.2 512.738 758.269 518.2 833.6 518.2Z" fill="url(#paint43_radial_1412_14861)"/></g></svg>